<svg xmlns="http://www.w3.org/2000/svg" width="720" height="560" viewBox="0 0 720 560">
 <rect width="720" height="560" fill="#ead7c5"/>
 <g fill="#55352d" font-family="Arial, sans-serif"><text x="50" y="70" font-size="17" letter-spacing="3">GOOD FREQUENCIES</text><text x="669" y="70" text-anchor="end" font-size="17">003</text></g>
 <circle cx="360" cy="289" r="174" fill="#d6b49a"/>
 <g fill="#744232"><rect x="90" y="275.0" width="11" height="30" rx="5.5"/><rect x="114" y="259.0" width="11" height="62" rx="5.5"/><rect x="138" y="242.0" width="11" height="96" rx="5.5"/><rect x="162" y="222.5" width="11" height="135" rx="5.5"/><rect x="186" y="201.0" width="11" height="178" rx="5.5"/><rect x="210" y="185.5" width="11" height="209" rx="5.5"/><rect x="234" y="167.5" width="11" height="245" rx="5.5"/><rect x="258" y="187.5" width="11" height="205" rx="5.5"/><rect x="282" y="215.0" width="11" height="150" rx="5.5"/><rect x="306" y="240.0" width="11" height="100" rx="5.5"/><rect x="330" y="262.5" width="11" height="55" rx="5.5"/><rect x="354" y="251.5" width="11" height="77" rx="5.5"/><rect x="378" y="230.5" width="11" height="119" rx="5.5"/><rect x="402" y="201.5" width="11" height="177" rx="5.5"/><rect x="426" y="173.5" width="11" height="233" rx="5.5"/><rect x="450" y="195.0" width="11" height="190" rx="5.5"/><rect x="474" y="219.0" width="11" height="142" rx="5.5"/><rect x="498" y="240.5" width="11" height="99" rx="5.5"/><rect x="522" y="255.0" width="11" height="70" rx="5.5"/><rect x="546" y="268.5" width="11" height="43" rx="5.5"/><rect x="570" y="277.0" width="11" height="26" rx="5.5"/><rect x="594" y="264.5" width="11" height="51" rx="5.5"/><rect x="618" y="249.0" width="11" height="82" rx="5.5"/></g>
 <path d="M51 493h618" stroke="#ac8d79"/><text x="50" y="527" fill="#55352d" font-size="13" font-family="Arial, sans-serif" letter-spacing="3">FIND YOUR OWN RHYTHM.</text>
</svg>
